<?xml version="1.0" encoding="UTF-8" standalone="no"?><!DOCTYPE svg PUBLIC "-//W3C//DTD SVG 1.1//EN" "http://www.w3.org/Graphics/SVG/1.1/DTD/svg11.dtd"><svg width="100%" height="100%" viewBox="0 0 40 38" version="1.1" xmlns="http://www.w3.org/2000/svg" xmlns:xlink="http://www.w3.org/1999/xlink" xml:space="preserve" xmlns:serif="http://www.serif.com/" style="fill-rule:evenodd;clip-rule:evenodd;stroke-linejoin:round;stroke-miterlimit:2;"><rect id="Artboard3" x="-0" y="-0" width="39.36" height="37.68" style="fill:none;"/><path d="M3.584,34.686c-2.215,-2.349 -2.21,-4.227 -2.214,-9.644c-0.01,-17.42 -0.092,-17.852 0.974,-19.727c2.499,-4.394 6.46,-4.102 9.686,-4.133c19.121,-0.184 19.6,0.085 21.072,0.91c4.607,2.583 4.224,6.596 4.23,11.191c0.026,18.118 0.062,18.28 -1.25,20.192c-2.743,3.998 -5.512,3.67 -12.771,3.67c-16.011,-0.002 -17.038,0.336 -19.728,-2.458Z" style="fill:url(#_Linear1);"/><path d="M9.024,23.803c0.516,-0.262 0.993,-0.604 1.416,-1.027c2.55,-2.55 2.158,-7.083 -0.876,-10.116c-0.081,-0.081 -0.164,-0.161 -0.247,-0.238l3.602,-3.602c0.082,0.079 0.164,0.159 0.245,0.24c2.099,2.099 3.488,4.602 4.133,7.144l7.266,-7.266l0.098,0.098c0.048,-0.034 0.097,-0.068 0.146,-0.102l4.381,4.381c-0.552,0.268 -1.063,0.626 -1.511,1.074c-2.55,2.55 -2.158,7.083 0.876,10.116c0.501,0.501 1.043,0.93 1.609,1.285l-3.673,3.673c-0.531,-0.413 -1.045,-0.866 -1.537,-1.358c-2.099,-2.099 -3.488,-4.602 -4.133,-7.144l-7.318,7.318l-4.477,-4.477Z" style="fill:#fff;"/><defs><linearGradient id="_Linear1" x1="0" y1="0" x2="1" y2="0" gradientUnits="userSpaceOnUse" gradientTransform="matrix(-16.090771,-8.082209,8.082209,-16.090771,19.352931,19.141125)"><stop offset="0" style="stop-color:#f86a62;stop-opacity:1"/><stop offset="1" style="stop-color:#fa8a55;stop-opacity:1"/></linearGradient></defs></svg>