<?xml version="1.0" encoding="UTF-8" standalone="no"?><!DOCTYPE svg PUBLIC "-//W3C//DTD SVG 1.1//EN" "http://www.w3.org/Graphics/SVG/1.1/DTD/svg11.dtd"><svg width="100%" height="100%" viewBox="0 0 109 38" version="1.1" xmlns="http://www.w3.org/2000/svg" xmlns:xlink="http://www.w3.org/1999/xlink" xml:space="preserve" xmlns:serif="http://www.serif.com/" style="fill-rule:evenodd;clip-rule:evenodd;stroke-linejoin:round;stroke-miterlimit:2;"><rect id="Artboard3" x="0" y="0" width="108.72" height="37.68" style="fill:none;"/><g transform="matrix(27.841618,0,0,27.841618,40.764812,26.127701)"><path d="M0.365,-0l-0.138,-0.203l-0.02,-0.018l-0.186,-0.259l0.133,0l0.123,0.178l0.019,0.017l0.201,0.285l-0.132,-0Zm-0.353,-0l0.194,-0.269l0.064,0.079l-0.13,0.19l-0.128,-0Zm0.294,-0.223l-0.065,-0.078l0.12,-0.179l0.127,0l-0.182,0.257Z" style="fill:#061927;fill-rule:nonzero;"/></g><g transform="matrix(27.841618,0,0,27.841618,54.936195,26.127701)"><rect x="0.061" y="-0.72" width="0.11" height="0.72" style="fill:#061927;fill-rule:nonzero;"/></g><g transform="matrix(27.841618,0,0,27.841618,61.395451,26.127701)"><path d="M0.262,0.01c-0.043,0 -0.083,-0.011 -0.118,-0.033c-0.035,-0.022 -0.063,-0.052 -0.083,-0.089c-0.02,-0.038 -0.03,-0.08 -0.03,-0.127c0,-0.047 0.01,-0.09 0.03,-0.127c0.02,-0.038 0.048,-0.068 0.083,-0.09c0.035,-0.022 0.074,-0.033 0.118,-0.033c0.037,0 0.069,0.008 0.097,0.023c0.028,0.016 0.051,0.037 0.068,0.065c0.017,0.027 0.025,0.058 0.025,0.093l0,0.138c0,0.035 -0.008,0.066 -0.025,0.093c-0.016,0.027 -0.039,0.049 -0.068,0.065c-0.029,0.016 -0.061,0.024 -0.098,0.024Zm0.018,-0.104c0.041,-0 0.073,-0.014 0.098,-0.041c0.025,-0.027 0.038,-0.062 0.038,-0.105c0,-0.029 -0.006,-0.054 -0.017,-0.076c-0.011,-0.022 -0.027,-0.039 -0.047,-0.051c-0.02,-0.012 -0.044,-0.018 -0.072,-0.019c-0.027,0 -0.05,0.006 -0.071,0.019c-0.02,0.012 -0.036,0.029 -0.048,0.051c-0.012,0.022 -0.017,0.047 -0.017,0.076c0,0.029 0.006,0.054 0.017,0.076c0.012,0.022 0.028,0.039 0.048,0.052c0.02,0.012 0.044,0.018 0.071,0.019Zm0.129,0.094l0,-0.129l0.019,-0.117l-0.019,-0.116l0,-0.118l0.11,0l0,0.48l-0.11,-0Z" style="fill:#061927;fill-rule:nonzero;"/></g><g transform="matrix(27.841618,0,0,27.841618,77.543589,26.127701)"><path d="M0.39,-0l0,-0.277c-0,-0.032 -0.01,-0.058 -0.031,-0.079c-0.02,-0.021 -0.046,-0.031 -0.078,-0.031c-0.022,0 -0.041,0.005 -0.057,0.014c-0.017,0.009 -0.03,0.022 -0.039,0.039c-0.009,0.017 -0.014,0.036 -0.014,0.057l-0.043,-0.024c0,-0.037 0.008,-0.069 0.024,-0.098c0.016,-0.028 0.038,-0.051 0.066,-0.067c0.028,-0.016 0.06,-0.024 0.096,-0.024c0.036,0 0.068,0.009 0.096,0.027c0.028,0.018 0.05,0.042 0.066,0.071c0.016,0.029 0.024,0.059 0.024,0.091l0,0.301l-0.11,-0Zm-0.329,-0l0,-0.48l0.11,0l0,0.48l-0.11,-0Z" style="fill:#061927;fill-rule:nonzero;"/></g><g transform="matrix(27.841618,0,0,27.841618,92.88432,26.127701)"><path d="M0.261,0.21c-0.051,0 -0.095,-0.009 -0.133,-0.027c-0.038,-0.018 -0.069,-0.044 -0.092,-0.077l0.072,-0.072c0.019,0.024 0.041,0.042 0.066,0.054c0.025,0.012 0.054,0.018 0.089,0.018c0.043,0 0.078,-0.011 0.103,-0.033c0.025,-0.022 0.038,-0.053 0.038,-0.092l0,-0.118l0.019,-0.106l-0.019,-0.107l0,-0.129l0.11,0l0,0.46c0,0.046 -0.011,0.086 -0.032,0.121c-0.021,0.034 -0.051,0.061 -0.089,0.08c-0.038,0.019 -0.082,0.029 -0.132,0.029Zm-0.005,-0.22c-0.043,0 -0.081,-0.01 -0.115,-0.031c-0.034,-0.021 -0.061,-0.05 -0.081,-0.086c-0.02,-0.037 -0.029,-0.078 -0.029,-0.123c0,-0.045 0.01,-0.086 0.03,-0.122c0.02,-0.036 0.047,-0.065 0.081,-0.086c0.034,-0.021 0.073,-0.031 0.115,-0.031c0.038,0 0.071,0.008 0.1,0.023c0.029,0.015 0.051,0.036 0.067,0.064c0.016,0.027 0.024,0.059 0.024,0.095l0,0.118c0,0.035 -0.008,0.067 -0.025,0.094c-0.016,0.027 -0.039,0.049 -0.068,0.064c-0.029,0.015 -0.062,0.023 -0.099,0.023Zm0.022,-0.104c0.027,0 0.05,-0.006 0.07,-0.017c0.02,-0.011 0.035,-0.027 0.046,-0.047c0.011,-0.02 0.017,-0.044 0.017,-0.072c0,-0.027 -0.006,-0.051 -0.017,-0.072c-0.011,-0.02 -0.026,-0.036 -0.046,-0.047c-0.02,-0.011 -0.043,-0.017 -0.07,-0.017c-0.027,0 -0.05,0.006 -0.071,0.017c-0.02,0.011 -0.036,0.027 -0.048,0.047c-0.011,0.02 -0.017,0.044 -0.017,0.072c0,0.027 0.006,0.05 0.017,0.071c0.011,0.021 0.027,0.037 0.048,0.048c0.02,0.011 0.044,0.017 0.071,0.017Z" style="fill:#061927;fill-rule:nonzero;"/></g><g transform="matrix(27.841618,0,0,27.841618,108.89325,26.127701)"></g><path d="M3.824,34.686c-2.215,-2.349 -2.21,-4.227 -2.214,-9.644c-0.01,-17.42 -0.092,-17.852 0.974,-19.727c2.499,-4.394 6.46,-4.102 9.686,-4.133c19.121,-0.184 19.6,0.085 21.072,0.91c4.607,2.583 4.224,6.596 4.23,11.191c0.026,18.118 0.062,18.28 -1.25,20.192c-2.743,3.998 -5.512,3.67 -12.771,3.67c-16.011,-0.002 -17.038,0.336 -19.728,-2.458Z" style="fill:url(#_Linear1);"/><path d="M9.024,23.803c0.516,-0.262 0.993,-0.604 1.416,-1.027c2.55,-2.55 2.158,-7.083 -0.876,-10.116c-0.081,-0.081 -0.164,-0.161 -0.247,-0.238l3.602,-3.602c0.082,0.079 0.164,0.159 0.245,0.24c2.099,2.099 3.488,4.602 4.133,7.144l7.266,-7.266l0.098,0.098c0.048,-0.034 0.097,-0.068 0.146,-0.102l4.381,4.381c-0.552,0.268 -1.063,0.626 -1.511,1.074c-2.55,2.55 -2.158,7.083 0.876,10.116c0.501,0.501 1.043,0.93 1.609,1.285l-3.673,3.673c-0.531,-0.413 -1.045,-0.866 -1.537,-1.358c-2.099,-2.099 -3.488,-4.602 -4.133,-7.144l-7.318,7.318l-4.477,-4.477Z" style="fill:#fff;"/><defs><linearGradient id="_Linear1" x1="0" y1="0" x2="1" y2="0" gradientUnits="userSpaceOnUse" gradientTransform="matrix(-16.090771,-8.082209,8.082209,-16.090771,19.592931,19.141125)"><stop offset="0" style="stop-color:#f86a62;stop-opacity:1"/><stop offset="1" style="stop-color:#fa8a55;stop-opacity:1"/></linearGradient></defs></svg>